<svg width="25" height="25" viewBox="0 0 25 25" fill="none" xmlns="http://www.w3.org/2000/svg">
<path d="M19.5 18V7C19.5 7 18.5 6.5 16.5 6.5C14.5 6.5 12.5 7.5 12.5 7.5M19.5 18V18.5C19.5 18.5 18 18.5 16 18.5C14 18.5 12.5 18.5 12.5 18.5M19.5 18C19.5 18 18.5 17.5 16.5 17.5C14.5 17.5 12.5 18.5 12.5 18.5M5.5 18V7C5.5 7 6.5 6.5 8.5 6.5C10.5 6.5 12.5 7.5 12.5 7.5M5.5 18V18.5C5.5 18.5 7 18.5 9 18.5C11 18.5 12.5 18.5 12.5 18.5M5.5 18C5.5 18 6.5 17.5 8.5 17.5C10.5 17.5 12.5 18.5 12.5 18.5M12.5 18.5V7.5" stroke="#0D0E12" stroke-width="1.2" stroke-linejoin="round"/>
</svg>
