<svg width="25" height="25" viewBox="0 0 25 25" fill="none" xmlns="http://www.w3.org/2000/svg">
<path d="M5.5 15.5L8.79289 12.2071C9.18342 11.8166 9.81658 11.8166 10.2071 12.2071L12.8867 14.8867C13.2386 15.2386 13.7957 15.2782 14.1938 14.9796L15.1192 14.2856C15.3601 14.1049 15.6696 14.0424 15.9618 14.1154L19.5 15M5.5 6.5H19.5V18.5H5.5V6.5ZM15.5 10.5C15.5 11.0523 15.0523 11.5 14.5 11.5C13.9477 11.5 13.5 11.0523 13.5 10.5C13.5 9.94772 13.9477 9.5 14.5 9.5C15.0523 9.5 15.5 9.94772 15.5 10.5Z" stroke="#101112" stroke-width="1.2" stroke-linejoin="round"/>
</svg>
