<svg width="25" height="25" viewBox="0 0 25 25" fill="none" xmlns="http://www.w3.org/2000/svg">
<path d="M9 8.5H8.17703C7.76813 8.5 7.40042 8.74895 7.24856 9.12861L5.5 13.5M5.5 13.5V17.5C5.5 18.0523 5.94302 18.5 6.4953 18.5C9.00381 18.5 15.5919 18.5 18.504 18.5C19.0563 18.5 19.5 18.0523 19.5 17.5V13.5M5.5 13.5H8.5L10 15.5H15L16.5 13.5H19.5M19.5 13.5L17.7514 9.12861C17.5996 8.74895 17.2319 8.5 16.823 8.5H16M12.5 5V12.5M12.5 12.5L15 10M12.5 12.5L10 10" stroke="#0D0E12" stroke-width="1.2" stroke-linejoin="round"/>
</svg>
