<svg width="25" height="25" viewBox="0 0 25 25" fill="none" xmlns="http://www.w3.org/2000/svg">
<path d="M9.5 16V14.5H15.5V16M13.5 10.5V14.5M11.5 10.5V14.5M15.5 7.5C15.5 9.15685 14.1569 10.5 12.5 10.5C10.8431 10.5 9.5 9.15685 9.5 7.5C9.5 5.84315 10.8431 4.5 12.5 4.5C14.1569 4.5 15.5 5.84315 15.5 7.5ZM18.5 19.5H6.5C5.94772 19.5 5.5 19.0523 5.5 18.5V17.5C5.5 16.9477 5.94772 16.5 6.5 16.5H18.5C19.0523 16.5 19.5 16.9477 19.5 17.5V18.5C19.5 19.0523 19.0523 19.5 18.5 19.5Z" stroke="#101112" stroke-width="1.2" stroke-linejoin="round"/>
</svg>
