<svg width="17" height="17" viewBox="0 0 17 17" fill="none" xmlns="http://www.w3.org/2000/svg">
<path fill-rule="evenodd" clip-rule="evenodd" d="M0.9 1.5C0.9 1.16863 1.16863 0.9 1.5 0.9H7.5C7.83137 0.9 8.1 1.16863 8.1 1.5V7.5C8.1 7.83137 7.83137 8.1 7.5 8.1H1.5C1.16863 8.1 0.9 7.83137 0.9 7.5V1.5ZM2.1 2.1V6.9H6.9V2.1H2.1ZM9.5 0.9C9.16863 0.9 8.9 1.16863 8.9 1.5V7.5C8.9 7.83137 9.16863 8.1 9.5 8.1H15.5C15.8314 8.1 16.1 7.83137 16.1 7.5V1.5C16.1 1.16863 15.8314 0.9 15.5 0.9H9.5ZM10.1 6.9V2.1H14.9V6.9H10.1ZM9.5 8.9C9.16863 8.9 8.9 9.16863 8.9 9.5V15.5C8.9 15.8314 9.16863 16.1 9.5 16.1H15.5C15.8314 16.1 16.1 15.8314 16.1 15.5V9.5C16.1 9.16863 15.8314 8.9 15.5 8.9H9.5ZM10.1 14.9V10.1H14.9V14.9H10.1ZM1.5 8.9C1.16863 8.9 0.9 9.16863 0.9 9.5V15.5C0.9 15.8314 1.16863 16.1 1.5 16.1H7.5C7.83137 16.1 8.1 15.8314 8.1 15.5V9.5C8.1 9.16863 7.83137 8.9 7.5 8.9H1.5ZM2.1 14.9V10.1H6.9V14.9H2.1Z" fill="#0D0E12"/>
</svg>
