<svg width="25" height="25" viewBox="0 0 25 25" fill="none" xmlns="http://www.w3.org/2000/svg">
<path d="M12.5 20.5L15.5 14M11 9.49999L4.5 12.5M9 14C9 14 7.54688 14.9531 6.5 16C5.5 17 4.5 20.5 4.5 20.5C4.5 20.5 8 19.5 9 18.5C10 17.5 11 16 11 16M9 14C9 14 10.1 9.9 12.5 7.5C15.5 4.5 20.5 4.5 20.5 4.5C20.5 4.5 20.5 9.5 17.5 12.5C15.7492 14.2508 11 16 11 16L9 14ZM16.5 9.99999C16.5 10.8284 15.8284 11.5 15 11.5C14.1716 11.5 13.5 10.8284 13.5 9.99999C13.5 9.17157 14.1716 8.49999 15 8.49999C15.8284 8.49999 16.5 9.17157 16.5 9.99999Z" stroke="#101112" stroke-width="1.2" stroke-linejoin="round"/>
</svg>
