<svg width="21" height="7" viewBox="0 0 21 7"><mask id="stroke-mask"><rect x="0" y="0.5" width="21" height="7" fill="white"></rect></mask><path d="M 0 0 L 0 0 C 1 0 2.7719302356170497 0.6357072528610997 3.5438604712340993 1.2714145057221995 L 8.9561395287659 5.728585494277801 C 9.728069764382951 6.364292747138901 11.271930235617049 6.364292747138901 12.0438604712341 5.728585494277801 L 17.4561395287659 1.2714145057221995 C 18.22806976438295 0.6357072528610997 20 0 21 0 L 21 0" mask="url(#stroke-mask)" stroke-width="1" class="sc-ivDvhZ clSGzr"></path><path d="M 0 0 L 0 0 C 1 0 2.7719302356170497 0.6357072528610997 3.5438604712340993 1.2714145057221995 L 8.9561395287659 5.728585494277801 C 9.728069764382951 6.364292747138901 11.271930235617049 6.364292747138901 12.0438604712341 5.728585494277801 L 17.4561395287659 1.2714145057221995 C 18.22806976438295 0.6357072528610997 20 0 21 0 L 21 0 M 21 -1 M 0 -1 Z" class="sc-cwKisF dCNZNW"></path></svg>
