<svg width="25" height="25" viewBox="0 0 25 25" fill="none" xmlns="http://www.w3.org/2000/svg">
<path fill-rule="evenodd" clip-rule="evenodd" d="M10.5 7.5H8.5V17.5H10.5V7.5ZM16.5 7.5H14.5V17.5H16.5V7.5Z" fill="#121923"/>
<path d="M8.5 7.5V6.9H7.9V7.5H8.5ZM10.5 7.5H11.1V6.9H10.5V7.5ZM8.5 17.5H7.9V18.1H8.5V17.5ZM10.5 17.5V18.1H11.1V17.5H10.5ZM14.5 7.5V6.9H13.9V7.5H14.5ZM16.5 7.5H17.1V6.9H16.5V7.5ZM14.5 17.5H13.9V18.1H14.5V17.5ZM16.5 17.5V18.1H17.1V17.5H16.5ZM8.5 8.1H10.5V6.9H8.5V8.1ZM9.1 17.5V7.5H7.9V17.5H9.1ZM10.5 16.9H8.5V18.1H10.5V16.9ZM9.9 7.5V17.5H11.1V7.5H9.9ZM14.5 8.1H16.5V6.9H14.5V8.1ZM15.1 17.5V7.5H13.9V17.5H15.1ZM16.5 16.9H14.5V18.1H16.5V16.9ZM15.9 7.5V17.5H17.1V7.5H15.9Z" fill="#121923"/>
</svg>
